<svg width="17" height="17" viewBox="0 0 17 17" fill="none" xmlns="http://www.w3.org/2000/svg">
<path fill-rule="evenodd" clip-rule="evenodd" d="M16.5 10.5V2.5C16.5 1.96957 16.2893 1.46086 15.9142 1.08579C15.5391 0.710714 15.0304 0.5 14.5 0.5H6.5C5.96957 0.5 5.46086 0.710714 5.08579 1.08579C4.71071 1.46086 4.5 1.96957 4.5 2.5V10.5C4.5 11.0304 4.71071 11.5391 5.08579 11.9142C5.46086 12.2893 5.96957 12.5 6.5 12.5H14.5C15.0304 12.5 15.5391 12.2893 15.9142 11.9142C16.2893 11.5391 16.5 11.0304 16.5 10.5Z" stroke="#3CA9ED" stroke-linecap="round" stroke-linejoin="round"/>
<path d="M4.5 4.503H2.5C1.96957 4.503 1.46086 4.71371 1.08579 5.08879C0.710714 5.46386 0.5 5.97257 0.5 6.503V14.5C0.5 15.0304 0.710714 15.5391 1.08579 15.9142C1.46086 16.2893 1.96957 16.5 2.5 16.5H2.503L10.503 16.486C11.0329 16.4852 11.5409 16.2741 11.9153 15.8992C12.2897 15.5242 12.5 15.0159 12.5 14.486V12.503M10.5 3.5V9.5M13.5 6.5H7.5" stroke="#3CA9ED" stroke-linecap="round" stroke-linejoin="round"/>
</svg>
