<svg width="28" height="28" viewBox="0 0 28 28" fill="none" xmlns="http://www.w3.org/2000/svg">
<path d="M15.75 11.375L14.5163 12.6087L16.7738 14.875H8.75V16.625H16.7738L14.5163 18.8913L15.75 20.125L20.125 15.75L15.75 11.375Z" fill="#3CA9ED"/>
<path d="M9.7755 5.25L12.7628 8.23725L13.2755 8.75H24.5V22.75H3.5V5.25H9.7755ZM9.7755 3.5H3.5C3.03587 3.5 2.59075 3.68437 2.26256 4.01256C1.93437 4.34075 1.75 4.78587 1.75 5.25V22.75C1.75 23.2141 1.93437 23.6592 2.26256 23.9874C2.59075 24.3156 3.03587 24.5 3.5 24.5H24.5C24.9641 24.5 25.4092 24.3156 25.7374 23.9874C26.0656 23.6592 26.25 23.2141 26.25 22.75V8.75C26.25 8.28587 26.0656 7.84075 25.7374 7.51256C25.4092 7.18437 24.9641 7 24.5 7H14L11.0128 4.01275C10.6846 3.68454 10.2396 3.5001 9.7755 3.5Z" fill="#3CA9ED"/>
</svg>
