<svg width="27" height="33" viewBox="0 0 27 33" fill="none" xmlns="http://www.w3.org/2000/svg">
<path d="M24.375 2.496H18.425C17.7799 1.71528 16.9704 1.08671 16.0542 0.655223C15.138 0.223739 14.1377 0 13.125 0C12.1123 0 11.112 0.223739 10.1958 0.655223C9.27962 1.08671 8.47005 1.71528 7.825 2.496H1.875C1.37772 2.496 0.900805 2.69355 0.549175 3.04518C0.197544 3.39681 0 3.87372 0 4.371V30.621C0 31.1183 0.197544 31.5952 0.549175 31.9468C0.900805 32.2985 1.37772 32.496 1.875 32.496H24.375C24.8723 32.496 25.3492 32.2985 25.7008 31.9468C26.0525 31.5952 26.25 31.1183 26.25 30.621V4.371C26.25 3.87372 26.0525 3.39681 25.7008 3.04518C25.3492 2.69355 24.8723 2.496 24.375 2.496ZM13.125 1.246C14.6168 1.246 16.0476 1.83863 17.1025 2.89353C18.1574 3.94842 18.75 5.37916 18.75 6.871V7.496H7.5V6.871C7.5 5.37916 8.09263 3.94842 9.14752 2.89353C10.2024 1.83863 11.6332 1.246 13.125 1.246ZM25 30.621C25 30.7868 24.9342 30.9457 24.8169 31.0629C24.6997 31.1802 24.5408 31.246 24.375 31.246H1.875C1.70924 31.246 1.55027 31.1802 1.43306 31.0629C1.31585 30.9457 1.25 30.7868 1.25 30.621V4.371C1.25 4.20524 1.31585 4.04627 1.43306 3.92906C1.55027 3.81185 1.70924 3.746 1.875 3.746H7.00469C6.50805 4.71278 6.24932 5.78412 6.25 6.871V8.121C6.25 8.28676 6.31585 8.44573 6.43306 8.56294C6.55027 8.68015 6.70924 8.746 6.875 8.746H19.375C19.5408 8.746 19.6997 8.68015 19.8169 8.56294C19.9342 8.44573 20 8.28676 20 8.121V6.871C20.0007 5.78412 19.7419 4.71278 19.2453 3.746H24.375C24.5408 3.746 24.6997 3.81185 24.8169 3.92906C24.9342 4.04627 25 4.20524 25 4.371V30.621Z" fill="#3CA9ED"/>
</svg>
