<svg width="31" height="31" viewBox="0 0 31 31" fill="none" xmlns="http://www.w3.org/2000/svg">
<path fill-rule="evenodd" clip-rule="evenodd" d="M11.25 0H19.36V1.38583C19.4825 2.72333 19.6692 3.72833 19.9333 4.45667C20.1983 5.1875 20.5117 5.56167 20.8358 5.7525C21.1583 5.9425 21.6292 6.0325 22.3833 5.9025C23.1375 5.77333 24.0942 5.4375 25.3083 4.8725L26.555 4.15333L30.61 11.1775L29.6042 11.7575C28.4508 12.56 27.6333 13.2475 27.1067 13.86C26.5783 14.475 26.4025 14.9467 26.3983 15.3317C26.395 15.7133 26.5592 16.1792 27.075 16.7867C27.5892 17.3942 28.3983 18.0758 29.55 18.8725L30.61 19.485L30.1775 20.2342L26.555 26.5092L25.255 25.7583C24.0175 25.1942 23.055 24.8708 22.3067 24.7617C21.5633 24.6533 21.1108 24.7667 20.8 24.9817C20.475 25.2067 20.1608 25.6417 19.905 26.47C19.6492 27.2967 19.48 28.4233 19.38 29.9058H19.36V30.6625H11.25V28.9325C11.1175 27.6483 10.9192 26.7008 10.6475 26.0258C10.3775 25.355 10.0642 25.025 9.73583 24.8617C9.39667 24.6925 8.89583 24.6283 8.10583 24.7892C7.32167 24.95 6.33667 25.3175 5.0975 25.9067L4.055 26.5083L0 19.485L1.51833 18.6083C2.53083 17.875 3.24167 17.2433 3.69417 16.68C4.1475 16.1167 4.29583 15.68 4.2925 15.3167C4.28917 14.9525 4.13333 14.5125 3.66667 13.945C3.2 13.3783 2.47333 12.745 1.43833 12.0075L0 11.1775L4.055 4.15333L4.92833 4.6575C6.19583 5.26333 7.20833 5.6475 8.01833 5.8225C8.835 6 9.35917 5.945 9.71333 5.78083C10.0508 5.62333 10.3683 5.30417 10.6417 4.64667C10.9167 3.9825 11.1183 3.0425 11.25 1.75917V0ZM4.68167 24.2608C5.84333 23.7233 6.87 23.3417 7.77083 23.1567C8.75833 22.9542 9.68 22.9717 10.4792 23.37C11.2892 23.7733 11.8283 24.4967 12.1942 25.4033C12.555 26.3 12.7742 27.4425 12.9125 28.8058L12.9167 28.8475V28.9958H17.7808C17.8892 27.8158 18.0558 26.8075 18.3125 25.9783C18.6242 24.97 19.0958 24.1342 19.8517 23.6117C20.6225 23.0783 21.5458 22.9667 22.5467 23.1125C23.525 23.255 24.6533 23.6525 25.9408 24.2392L28.3492 20.0675C27.2717 19.3042 26.4108 18.5808 25.8033 17.8642C25.14 17.0825 24.7233 16.2408 24.7325 15.315C24.7408 14.3917 25.1725 13.5542 25.8425 12.7733C26.4483 12.0683 27.2967 11.355 28.3525 10.6008L25.9375 6.4175C24.7017 6.98833 23.6142 7.3825 22.6658 7.54583C21.6825 7.71417 20.77 7.64833 19.9908 7.18917C19.2125 6.73083 18.7075 5.96417 18.3667 5.025C18.0417 4.1275 17.84 3.00167 17.7125 1.66667H12.9167V1.8425L12.9125 1.88417C12.775 3.25 12.5517 4.3925 12.1808 5.28583C11.8033 6.19333 11.2458 6.90583 10.4158 7.29167C9.6025 7.67 8.66667 7.66917 7.66583 7.45167C6.79333 7.2625 5.80417 6.89583 4.69083 6.38667L2.27667 10.5675L2.34 10.6042L2.37167 10.6267C3.47167 11.4067 4.34667 12.1475 4.95333 12.8867C5.565 13.63 5.95167 14.4283 5.95917 15.3033C5.96667 16.1783 5.5925 16.9783 4.99333 17.7242C4.39917 18.4642 3.53833 19.205 2.46 19.9842L2.425 20.0092L2.27667 20.095L4.68167 24.2608Z" fill="#959595"/>
<path fill-rule="evenodd" clip-rule="evenodd" d="M15.305 17.8309C15.968 17.8309 16.6039 17.5675 17.0727 17.0986C17.5416 16.6298 17.805 15.9939 17.805 15.3309C17.805 14.6678 17.5416 14.0319 17.0727 13.5631C16.6039 13.0942 15.968 12.8309 15.305 12.8309C14.6419 12.8309 14.006 13.0942 13.5372 13.5631C13.0684 14.0319 12.805 14.6678 12.805 15.3309C12.805 15.9939 13.0684 16.6298 13.5372 17.0986C14.006 17.5675 14.6419 17.8309 15.305 17.8309ZM15.305 19.4975C16.41 19.4975 17.4698 19.0585 18.2513 18.2771C19.0327 17.4957 19.4716 16.4359 19.4716 15.3309C19.4716 14.2258 19.0327 13.166 18.2513 12.3846C17.4698 11.6032 16.41 11.1642 15.305 11.1642C14.1999 11.1642 13.1401 11.6032 12.3587 12.3846C11.5773 13.166 11.1383 14.2258 11.1383 15.3309C11.1383 16.4359 11.5773 17.4957 12.3587 18.2771C13.1401 19.0585 14.1999 19.4975 15.305 19.4975Z" fill="#959595"/>
<path fill-rule="evenodd" clip-rule="evenodd" d="M15.305 21.1641C16.071 21.1641 16.8296 21.0133 17.5373 20.7201C18.245 20.427 18.8881 19.9973 19.4298 19.4556C19.9715 18.9139 20.4011 18.2709 20.6943 17.5631C20.9874 16.8554 21.1383 16.0969 21.1383 15.3308C21.1383 14.5648 20.9874 13.8062 20.6943 13.0985C20.4011 12.3908 19.9715 11.7477 19.4298 11.206C18.8881 10.6643 18.245 10.2347 17.5373 9.94151C16.8296 9.64836 16.071 9.49748 15.305 9.49748C13.7579 9.49748 12.2742 10.1121 11.1802 11.206C10.0862 12.3 9.47166 13.7837 9.47166 15.3308C9.47166 16.8779 10.0862 18.3616 11.1802 19.4556C12.2742 20.5496 13.7579 21.1641 15.305 21.1641ZM15.305 22.8308C17.2941 22.8308 19.2018 22.0406 20.6083 20.6341C22.0148 19.2276 22.805 17.3199 22.805 15.3308C22.805 13.3417 22.0148 11.434 20.6083 10.0275C19.2018 8.62099 17.2941 7.83081 15.305 7.83081C13.3159 7.83081 11.4082 8.62099 10.0017 10.0275C8.59517 11.434 7.80499 13.3417 7.80499 15.3308C7.80499 17.3199 8.59517 19.2276 10.0017 20.6341C11.4082 22.0406 13.3159 22.8308 15.305 22.8308Z" fill="#959595"/>
</svg>
