<svg width="30" height="30" viewBox="0 0 30 30" fill="none" xmlns="http://www.w3.org/2000/svg">
<path d="M29.3333 3.76664C29.2071 2.75779 28.718 1.82936 27.9574 1.15465C27.1968 0.479939 26.2167 0.105056 25.2 0.0999756H4.80832C3.79414 0.10453 2.81609 0.477071 2.05588 1.14839C1.29567 1.8197 0.804981 2.74415 0.674988 3.74998L0.174988 7.86664C0.17565 8.67435 0.348419 9.47265 0.681785 10.2084C1.01515 10.9441 1.50146 11.6003 2.10832 12.1333V25.7333C2.10832 26.8384 2.54731 27.8982 3.32871 28.6796C4.11011 29.461 5.16992 29.9 6.27499 29.9H23.725C24.8301 29.9 25.8899 29.461 26.6713 28.6796C27.4527 27.8982 27.8917 26.8384 27.8917 25.7333V12.1333C28.5 11.601 28.9879 10.9452 29.3227 10.2094C29.6576 9.47368 29.8316 8.67499 29.8333 7.86664L29.3333 3.76664ZM18.35 28.2333H11.6833V21.4333C11.6833 20.7703 11.9467 20.1344 12.4156 19.6655C12.8844 19.1967 13.5203 18.9333 14.1833 18.9333H15.85C16.513 18.9333 17.1489 19.1967 17.6178 19.6655C18.0866 20.1344 18.35 20.7703 18.35 21.4333V28.2333ZM26.2333 25.7333C26.2333 26.3964 25.9699 27.0322 25.5011 27.5011C25.0322 27.9699 24.3964 28.2333 23.7333 28.2333H20.0167V21.4333C20.0167 20.3282 19.5777 19.2684 18.7963 18.487C18.0149 17.7056 16.9551 17.2666 15.85 17.2666H14.1833C13.0783 17.2666 12.0184 17.7056 11.237 18.487C10.4556 19.2684 10.0167 20.3282 10.0167 21.4333V28.2333H6.27499C5.61195 28.2333 4.97606 27.9699 4.50722 27.5011C4.03838 27.0322 3.77499 26.3964 3.77499 25.7333V13.1166C4.43075 13.385 5.13313 13.5209 5.84165 13.5166C6.65979 13.5204 7.46882 13.3448 8.21175 13.0022C8.95468 12.6595 9.61345 12.1581 10.1417 11.5333C10.2169 11.4584 10.3188 11.4164 10.425 11.4164C10.5312 11.4164 10.6331 11.4584 10.7083 11.5333C11.2365 12.1581 11.8953 12.6595 12.6382 13.0022C13.3812 13.3448 14.1902 13.5204 15.0083 13.5166C15.83 13.5201 16.6426 13.3445 17.3896 13.002C18.1365 12.6595 18.7998 12.1583 19.3333 11.5333C19.3674 11.4966 19.4086 11.4673 19.4545 11.4472C19.5004 11.4272 19.5499 11.4168 19.6 11.4166C19.6526 11.4163 19.7047 11.4265 19.7534 11.4465C19.802 11.4665 19.8462 11.496 19.8833 11.5333C20.4115 12.1581 21.0703 12.6595 21.8132 13.0022C22.5562 13.3448 23.3652 13.5204 24.1833 13.5166C24.8865 13.5209 25.5834 13.3849 26.2333 13.1166V25.7333ZM24.1833 11.85C23.6077 11.8527 23.0384 11.7304 22.5147 11.4915C21.991 11.2527 21.5254 10.903 21.15 10.4666C20.9623 10.2423 20.7278 10.0619 20.4629 9.93811C20.1979 9.81429 19.9091 9.75007 19.6167 9.74998H19.6C19.3088 9.74734 19.0205 9.80866 18.7555 9.92962C18.4906 10.0506 18.2554 10.2282 18.0667 10.45C17.6801 10.8716 17.21 11.2083 16.6864 11.4386C16.1628 11.6689 15.597 11.7878 15.025 11.7878C14.453 11.7878 13.8872 11.6689 13.3635 11.4386C12.8399 11.2083 12.3699 10.8716 11.9833 10.45C11.7894 10.2301 11.5509 10.0539 11.2836 9.93331C11.0164 9.81267 10.7265 9.75028 10.4333 9.75028C10.1401 9.75028 9.85026 9.81267 9.58302 9.93331C9.31577 10.0539 9.07726 10.2301 8.88332 10.45C8.3573 11.0638 7.65797 11.5042 6.87713 11.7134C6.0963 11.9227 5.27045 11.8909 4.50799 11.6223C3.74553 11.3538 3.08209 10.8609 2.60476 10.2085C2.12743 9.55611 1.85852 8.77463 1.83332 7.96664L2.33332 3.96664C2.41246 3.36216 2.70735 2.80663 3.16368 2.40237C3.62001 1.9981 4.20704 1.77233 4.81665 1.76664H25.2C25.8113 1.7663 26.4016 1.98997 26.8592 2.39535C27.3168 2.80073 27.61 3.35973 27.6833 3.96664L28.1667 7.89998C28.157 8.9518 27.732 9.95719 26.9843 10.6971C26.2366 11.4369 25.2269 11.8513 24.175 11.85H24.1833Z" fill="#959595"/>
</svg>
