<svg width="34" height="30" viewBox="0 0 34 30" fill="none" xmlns="http://www.w3.org/2000/svg">
<path d="M24.375 9.84375V28.5938C24.375 28.7588 24.4087 28.9153 24.4612 29.0625H21.4763C21.5288 28.9153 21.5625 28.7588 21.5625 28.5938V1.40625C21.5625 0.630937 20.9316 0 20.1562 0H13.5938C12.8184 0 12.1875 0.630937 12.1875 1.40625V28.5938C12.1875 28.7588 12.2212 28.9153 12.2738 29.0625H9.28875C9.34125 28.9153 9.375 28.7588 9.375 28.5938V18.2812C9.375 17.5059 8.74406 16.875 7.96875 16.875H1.40625C0.630937 16.875 0 17.5059 0 18.2812V28.5938C0 29.3691 0.630937 30 1.40625 30H32.3438C33.1191 30 33.75 29.3691 33.75 28.5938V9.84375C33.75 9.06844 33.1191 8.4375 32.3438 8.4375H25.7812C25.0059 8.4375 24.375 9.06844 24.375 9.84375ZM4.6875 29.0625H1.40625C1.28193 29.0625 1.1627 29.0131 1.07479 28.9252C0.986886 28.8373 0.9375 28.7181 0.9375 28.5938V18.2812C0.9375 18.1569 0.986886 18.0377 1.07479 17.9498C1.1627 17.8619 1.28193 17.8125 1.40625 17.8125H7.96875C8.09307 17.8125 8.2123 17.8619 8.30021 17.9498C8.38811 18.0377 8.4375 18.1569 8.4375 18.2812V28.5938C8.4375 28.7181 8.38811 28.8373 8.30021 28.9252C8.2123 29.0131 8.09307 29.0625 7.96875 29.0625H4.6875ZM13.5938 29.0625C13.4694 29.0625 13.3502 29.0131 13.2623 28.9252C13.1744 28.8373 13.125 28.7181 13.125 28.5938V1.40625C13.125 1.28193 13.1744 1.1627 13.2623 1.07479C13.3502 0.986886 13.4694 0.9375 13.5938 0.9375H20.1562C20.2806 0.9375 20.3998 0.986886 20.4877 1.07479C20.5756 1.1627 20.625 1.28193 20.625 1.40625V28.5938C20.625 28.7181 20.5756 28.8373 20.4877 28.9252C20.3998 29.0131 20.2806 29.0625 20.1562 29.0625H13.5938ZM32.8125 9.84375V28.5938C32.8125 28.7181 32.7631 28.8373 32.6752 28.9252C32.5873 29.0131 32.4681 29.0625 32.3438 29.0625H25.7812C25.6569 29.0625 25.5377 29.0131 25.4498 28.9252C25.3619 28.8373 25.3125 28.7181 25.3125 28.5938V9.84375C25.3125 9.71943 25.3619 9.6002 25.4498 9.51229C25.5377 9.42439 25.6569 9.375 25.7812 9.375H32.3438C32.4681 9.375 32.5873 9.42439 32.6752 9.51229C32.7631 9.6002 32.8125 9.71943 32.8125 9.84375Z" fill="#959595"/>
</svg>
