<svg width="13" height="13" viewBox="0 0 13 13" fill="none" xmlns="http://www.w3.org/2000/svg">
<path d="M0.523438 6.5C0.523438 7.68205 0.873957 8.83756 1.53067 9.8204C2.18738 10.8032 3.12079 11.5693 4.21287 12.0216C5.30494 12.474 6.50663 12.5923 7.66597 12.3617C8.82531 12.1311 9.89023 11.5619 10.7261 10.7261C11.5619 9.89023 12.1311 8.82531 12.3617 7.66597C12.5923 6.50663 12.474 5.30494 12.0216 4.21287C11.5693 3.12079 10.8032 2.18738 9.8204 1.53067C8.83756 0.873955 7.68205 0.523436 6.5 0.523436C4.91549 0.525296 3.39641 1.15557 2.27599 2.27599C1.15557 3.39641 0.525298 4.91549 0.523438 6.5ZM11.7734 6.5C11.7734 7.54298 11.4642 8.56255 10.8847 9.42976C10.3052 10.297 9.48165 10.9729 8.51806 11.372C7.55446 11.7712 6.49415 11.8756 5.4712 11.6721C4.44826 11.4686 3.50862 10.9664 2.77112 10.2289C2.03361 9.49138 1.53137 8.55174 1.32789 7.52879C1.12441 6.50585 1.22884 5.44554 1.62798 4.48194C2.02711 3.51835 2.70302 2.69475 3.57024 2.1153C4.43745 1.53584 5.45701 1.22656 6.5 1.22656C7.89813 1.22811 9.23854 1.7842 10.2272 2.77283C11.2158 3.76145 11.7719 5.10187 11.7734 6.5ZM4.40469 5.31406L6.5 7.40879L8.59531 5.31406C8.6275 5.27952 8.66631 5.25182 8.70943 5.2326C8.75256 5.21339 8.79911 5.20305 8.84632 5.20222C8.89352 5.20139 8.94041 5.21007 8.98419 5.22775C9.02796 5.24543 9.06773 5.27175 9.10111 5.30514C9.13449 5.33852 9.16081 5.37829 9.17849 5.42206C9.19618 5.46584 9.20486 5.51273 9.20403 5.55993C9.20319 5.60713 9.19286 5.65369 9.17365 5.69681C9.15443 5.73994 9.12673 5.77875 9.09219 5.81094L6.74844 8.15469C6.68252 8.22052 6.59316 8.2575 6.5 8.2575C6.40684 8.2575 6.31748 8.22052 6.25156 8.15469L3.90781 5.81094C3.84571 5.74429 3.8119 5.65614 3.81351 5.56507C3.81512 5.47399 3.85201 5.38709 3.91643 5.32268C3.98084 5.25826 4.06774 5.22137 4.15882 5.21976C4.2499 5.21815 4.33804 5.25196 4.40469 5.31406Z" fill="#E1E1E1"/>
</svg>
