<svg width="24" height="22" viewBox="0 0 24 22" fill="none" xmlns="http://www.w3.org/2000/svg">
<path d="M19.425 3.49998C19.2529 2.65226 18.793 1.89012 18.1232 1.34269C17.4534 0.795265 16.615 0.496216 15.75 0.496216C14.885 0.496216 14.0466 0.795265 13.3768 1.34269C12.707 1.89012 12.2471 2.65226 12.075 3.49998H0.75C0.551088 3.49998 0.360322 3.57899 0.21967 3.71965C0.0790178 3.8603 0 4.05106 0 4.24998C0 4.44889 0.0790178 4.63965 0.21967 4.7803C0.360322 4.92096 0.551088 4.99998 0.75 4.99998H12.075C12.2471 5.84769 12.707 6.60983 13.3768 7.15726C14.0466 7.70469 14.885 8.00373 15.75 8.00373C16.615 8.00373 17.4534 7.70469 18.1232 7.15726C18.793 6.60983 19.2529 5.84769 19.425 4.99998H23.25C23.4489 4.99998 23.6397 4.92096 23.7803 4.7803C23.921 4.63965 24 4.44889 24 4.24998C24 4.05106 23.921 3.8603 23.7803 3.71965C23.6397 3.57899 23.4489 3.49998 23.25 3.49998H19.425ZM15.75 6.49998C15.4545 6.49998 15.1619 6.44178 14.889 6.3287C14.616 6.21563 14.3679 6.0499 14.159 5.84097C13.9501 5.63203 13.7843 5.384 13.6713 5.11101C13.5582 4.83803 13.5 4.54545 13.5 4.24998C13.5 3.9545 13.5582 3.66192 13.6713 3.38894C13.7843 3.11595 13.9501 2.86792 14.159 2.65898C14.3679 2.45005 14.616 2.28432 14.889 2.17125C15.1619 2.05817 15.4545 1.99998 15.75 1.99998C16.3467 1.99998 16.919 2.23703 17.341 2.65898C17.7629 3.08094 18 3.65324 18 4.24998C18 4.84671 17.7629 5.41901 17.341 5.84097C16.919 6.26292 16.3467 6.49998 15.75 6.49998ZM11.925 17C11.7529 16.1523 11.293 15.3901 10.6232 14.8427C9.95343 14.2953 9.11502 13.9962 8.25 13.9962C7.38498 13.9962 6.54657 14.2953 5.87681 14.8427C5.20705 15.3901 4.74714 16.1523 4.575 17H0.75C0.551088 17 0.360322 17.079 0.21967 17.2196C0.0790178 17.3603 0 17.5511 0 17.75C0 17.9489 0.0790178 18.1397 0.21967 18.2803C0.360322 18.421 0.551088 18.5 0.75 18.5H4.575C4.74714 19.3477 5.20705 20.1098 5.87681 20.6573C6.54657 21.2047 7.38498 21.5037 8.25 21.5037C9.11502 21.5037 9.95343 21.2047 10.6232 20.6573C11.293 20.1098 11.7529 19.3477 11.925 18.5H23.25C23.4489 18.5 23.6397 18.421 23.7803 18.2803C23.921 18.1397 24 17.9489 24 17.75C24 17.5511 23.921 17.3603 23.7803 17.2196C23.6397 17.079 23.4489 17 23.25 17H11.925ZM8.25 20C7.65326 20 7.08097 19.7629 6.65901 19.341C6.23705 18.919 6 18.3467 6 17.75C6 17.1532 6.23705 16.5809 6.65901 16.159C7.08097 15.737 7.65326 15.5 8.25 15.5C8.84674 15.5 9.41903 15.737 9.84099 16.159C10.2629 16.5809 10.5 17.1532 10.5 17.75C10.5 18.3467 10.2629 18.919 9.84099 19.341C9.41903 19.7629 8.84674 20 8.25 20Z" fill="#555555"/>
</svg>
